# xmcd CD database file generated by OrangeCD 6.2
#
# Track frame offsets:
#	150
#	3357
#	18923
#	38743
#	53789
#	56102
#	76641
#	93079
#	110225
#	141857
#	146655
#	165230
#	186915
#	205055
#	226157
#	230004
#	252913
#	277831
#
# Disc length: 3761 seconds
#
# Revision: 0
# Processed by: cddbd v1.5.2PL0 Copyright (c) Steve Scherf et al.
# Submitted via: OrangeCD 6.2
#
DISCID=e50eaf12
DTITLE=Magda Piskorczyk - Magda Live
DYEAR=2008
DGENRE=
TTITLE0=Powitanie
TTITLE1=Walking Blues
TTITLE2=Fever
TTITLE3=On the Hunt
TTITLE4=Crossroads Intro
TTITLE5=Crossroads
TTITLE6=Work Song
TTITLE7=Canned Heat
TTITLE8=Muddy Water Blues
TTITLE9=Kermit Blues Intro
TTITLE10=Hard to Get
TTITLE11=Hearts
TTITLE12=All of Me
TTITLE13=Up above My Head
TTITLE14=Jericho Intro
TTITLE15=Joshua Fit the Battle of Jericho
TTITLE16=Walk Over God's Heaven
TTITLE17=Pozegnanie
EXTD=
EXTT0=
EXTT1=
EXTT2=
EXTT3=
EXTT4=
EXTT5=
EXTT6=
EXTT7=
EXTT8=
EXTT9=
EXTT10=
EXTT11=
EXTT12=
EXTT13=
EXTT14=
EXTT15=
EXTT16=
EXTT17=
PLAYORDER=
